<?xml version="1.0" encoding="UTF-8"?>
<svg version="1.1" xmlns="http://www.w3.org/2000/svg" width="794" height="714">
<path d="M0 0 C1.74586711 0.59558863 3.49580019 1.17942064 5.25 1.75 C13.92238677 4.86382433 21.9569634 9.5527877 30 14 C30.76248047 14.42120117 31.52496094 14.84240234 32.31054688 15.27636719 C41.20448922 20.23600229 49.44303697 25.55953824 57.36328125 31.96875 C59.562771 33.66317173 61.51932388 34.81690831 64 36 C65.14364614 37.11000948 66.28179581 38.22659996 67.3828125 39.37890625 C69.50974147 41.51097273 71.75237854 43.49581528 74 45.5 C77.44107448 48.57511087 80.73686159 51.73686159 84 55 C85.08120951 55.87762299 86.16476373 56.75236127 87.25 57.625 C91.23694449 61.0005556 94.3681315 64.93852685 97.61328125 69.015625 C100.01763637 72.02205268 102.50153594 74.9465677 105 77.875 C127 104.26818885 127 104.26818885 127 112 C127.66 112 128.32 112 129 112 C138.86333096 132.18329761 146.85081875 152.37953118 153 174 C153.32871094 175.12792969 153.65742187 176.25585938 153.99609375 177.41796875 C158.98880649 195.75907409 159.51188261 214.28025182 159.44604492 233.16186523 C159.43686524 235.92389259 159.44377597 238.68507353 159.46655273 241.44702148 C159.60753055 258.65504567 158.84424863 275.16467203 155 292 C154.71761475 293.24724854 154.43522949 294.49449707 154.14428711 295.77954102 C153.41418059 298.75333415 152.6128069 301.68728041 151.75 304.625 C151.30394409 306.1723584 151.30394409 306.1723584 150.84887695 307.75097656 C142.84276631 334.86139544 131.05038424 360.77257787 114.18554688 383.52319336 C112.34206758 386.02098944 110.98988959 388.03033124 110 391 C108.35812868 392.6910985 106.68665273 394.35356199 105 396 C103.09872464 398.12737661 101.2679423 400.31159325 99.4375 402.5 C98.96892578 403.05558594 98.50035156 403.61117188 98.01757812 404.18359375 C95.91952057 406.67778805 93.85688469 409.18285513 91.84765625 411.75 C89.53182987 414.57011839 86.79972771 416.66689357 84 419 C83.38898438 419.78375 82.77796875 420.5675 82.1484375 421.375 C79.85886306 424.17244368 77.45098526 426.25187727 74.625 428.5 C71.5228874 430.98086175 68.43913705 433.46108122 65.4375 436.0625 C63 438 63 438 61 438 C61 438.66 61 439.32 61 440 C58.78636387 441.72515218 56.575217 443.31128952 54.25 444.875 C53.5377124 445.35751221 52.8254248 445.84002441 52.09155273 446.3371582 C37.98580799 455.7830101 23.56452077 464.20955991 8 471 C7.34032227 471.29712891 6.68064453 471.59425781 6.00097656 471.90039062 C-2.71956144 475.82271002 -11.58703635 478.9552038 -20.75 481.6875 C-21.65242432 481.96086182 -22.55484863 482.23422363 -23.48461914 482.51586914 C-26.64000114 483.42284629 -29.8113721 484.21769348 -33 485 C-33.64021088 485.17298615 -34.28042175 485.34597229 -34.94003296 485.52420044 C-52.60580224 490.2005627 -70.74485142 489.64758029 -88.87280273 489.57641602 C-92.49427392 489.56267615 -96.11469063 489.56958547 -99.73608398 489.59692383 C-120.0303886 489.74978481 -139.30786601 489.57756595 -159 484 C-160.81634963 483.50825436 -162.63275585 483.01671769 -164.44921875 482.52539062 C-205.31961728 471.36904262 -244.52457344 448.47647879 -274 418 C-274.79277344 417.21109375 -275.58554687 416.4221875 -276.40234375 415.609375 C-285.35214337 406.61920035 -293.49521658 397.22067532 -301 387 C-301.92039062 385.75669922 -301.92039062 385.75669922 -302.859375 384.48828125 C-306.47010729 379.47797612 -309.73646713 374.27766616 -312.9375 369 C-313.33976807 368.34016113 -313.74203613 367.68032227 -314.15649414 367.00048828 C-317 362.24252444 -317 362.24252444 -317 360 C-317.66 359.67 -318.32 359.34 -319 359 C-319.95800781 357.38037109 -319.95800781 357.38037109 -320.953125 355.2734375 C-321.32187744 354.49726074 -321.69062988 353.72108398 -322.07055664 352.92138672 C-322.45977295 352.0810791 -322.84898926 351.24077148 -323.25 350.375 C-323.85606079 349.07393311 -323.85606079 349.07393311 -324.47436523 347.74658203 C-334.08865958 326.92359572 -342.2638421 304.70639944 -346 282 C-346.17515137 280.99404785 -346.35030273 279.9880957 -346.53076172 278.95166016 C-348.45349802 266.18201539 -348.37219449 253.36669129 -348.37060547 240.4765625 C-348.3749602 236.53601235 -348.41133075 232.59660176 -348.44921875 228.65625 C-348.54819244 206.30406368 -345.72461469 185.31192526 -339 164 C-338.73815918 163.15840332 -338.47631836 162.31680664 -338.20654297 161.44970703 C-327.05925411 125.89695701 -308.71315886 95.16288361 -284.54296875 66.97265625 C-282.83652282 64.97787076 -281.15171773 62.96438323 -279.48828125 60.93359375 C-267.07579117 46.29971612 -248.87828275 31.21781527 -232 22 C-231.34 22 -230.68 22 -230 22 C-230 21.34 -230 20.68 -230 20 C-225.68333248 17.63470273 -221.34685252 15.30912749 -217 13 C-216.41154297 12.68466309 -215.82308594 12.36932617 -215.21679688 12.04443359 C-197.49293305 2.60838981 -178.51316808 -5.18230128 -159 -10 C-158.16388184 -10.20963379 -157.32776367 -10.41926758 -156.46630859 -10.63525391 C-105.60940487 -23.14977995 -48.44440869 -21.17479342 0 0 Z M-239.34375 79.5546875 C-242 82 -242 82 -244.84375 84.1953125 C-245.5553125 84.79085937 -246.266875 85.38640625 -247 86 C-247 86.66 -247 87.32 -247 88 C-247.66 88 -248.32 88 -249 88 C-251.58228746 90.41992807 -253.74905567 93.27537869 -256 96 C-256.66298096 96.79664063 -256.66298096 96.79664063 -257.33935547 97.609375 C-273.88554275 117.56593093 -287.26273624 139.48557524 -296 164 C-296.42539062 165.14597656 -296.85078125 166.29195312 -297.2890625 167.47265625 C-299.90975446 174.86043511 -301.9113769 182.30813918 -303.6875 189.9375 C-303.88996338 190.7941626 -304.09242676 191.6508252 -304.30102539 192.53344727 C-307.59178314 207.24789428 -308.37706689 221.73421703 -308.3125 236.75 C-308.31067719 237.63184967 -308.30885437 238.51369934 -308.30697632 239.42227173 C-308.26255265 252.18778299 -307.81045157 264.5051436 -305 277 C-304.82839355 277.82838379 -304.65678711 278.65676758 -304.47998047 279.51025391 C-298.29878057 309.31148132 -286.51422967 340.27069672 -267 364 C-266.34386719 364.90492188 -265.68773437 365.80984375 -265.01171875 366.7421875 C-258.83606587 375.06634483 -251.85675094 382.47445613 -244.5625 389.8125 C-244.08275726 390.29982605 -243.60301453 390.7871521 -243.10873413 391.28924561 C-234.04207824 400.47162302 -224.15788255 408.11339879 -213.375 415.1875 C-212.7351416 415.60837891 -212.0952832 416.02925781 -211.43603516 416.46289062 C-210.1791974 417.2857786 -208.92066363 418.10608413 -207.66015625 418.92333984 C-206.28930539 419.81237695 -204.92500013 420.71149831 -203.5625 421.61328125 C-160.91465111 448.64897117 -105.24870743 457.37243318 -56 448 C-55.0934668 447.82839355 -54.18693359 447.65678711 -53.25292969 447.47998047 C-16.55447359 440.29817348 15.43893643 423.68858062 44.40185547 400.29101562 C45.50919513 399.39648276 46.6233085 398.51029503 47.74267578 397.63085938 C49.19908739 396.46573009 50.60460169 395.23754782 52 394 C52 393.34 52 392.68 52 392 C52.87591797 391.62681641 52.87591797 391.62681641 53.76953125 391.24609375 C56.31316284 389.82504563 57.79407698 388.26807085 59.6875 386.0625 C60.28949219 385.37285156 60.89148438 384.68320312 61.51171875 383.97265625 C63.1871876 381.96998029 63.1871876 381.96998029 64 379 C64.598125 378.70738281 65.19625 378.41476562 65.8125 378.11328125 C68.6916216 376.64801401 70.04017298 374.74063403 72 372.1875 C72.66 371.33542969 73.32 370.48335938 74 369.60546875 C74.66 368.74566406 75.32 367.88585937 76 367 C77.11375 365.69482422 77.11375 365.69482422 78.25 364.36328125 C80.29755024 362.08828766 80.29755024 362.08828766 80 359 C80.66 359 81.32 359 82 359 C83.6424535 356.67675258 85.14884408 354.36431585 86.625 351.9375 C87.07085449 351.21014648 87.51670898 350.48279297 87.97607422 349.73339844 C99.23234028 331.19130218 107.37083299 311.96379439 113 291 C113.28488281 290.01515625 113.56976562 289.0303125 113.86328125 288.015625 C118.1517058 272.44534511 119.49530949 256.08701001 120 240 C120.04125 238.99453125 120.0825 237.9890625 120.125 236.953125 C120.73660829 209.88945802 114.29628945 183.21624804 105 158 C104.35224609 156.23269531 104.35224609 156.23269531 103.69140625 154.4296875 C96.02615564 134.96154236 84.16253257 114.42463265 70 99 C69.34 99 68.68 99 68 99 C67.72921631 98.40920654 67.45843262 97.81841309 67.17944336 97.2097168 C65.23655787 93.56967198 62.37482696 90.80257705 59.5625 87.8125 C58.93577393 87.14412109 58.30904785 86.47574219 57.66333008 85.78710938 C52.46267896 80.3254013 47.0064924 75.57015726 41 71 C40.23171875 70.38898438 39.4634375 69.77796875 38.671875 69.1484375 C33.27459731 64.86458422 27.70460135 60.86357092 22 57 C21.16984375 56.43410156 20.3396875 55.86820313 19.484375 55.28515625 C1.76945451 43.5901264 -18.47630275 35.23153067 -39 30 C-40.18980469 29.66355469 -41.37960937 29.32710937 -42.60546875 28.98046875 C-111.26185135 10.29417501 -187.91064255 31.08887471 -239.34375 79.5546875 Z " fill="#039C06" transform="translate(500,105)"/>
<path d="M0 0 C5.00746264 4.63520522 7.78130399 9.16244422 8.09765625 16.16015625 C7.66385852 26.27631936 -0.6279551 32.92190408 -7.38781738 39.64851379 C-8.21767167 40.48219362 -9.04752595 41.31587345 -9.90252733 42.17481631 C-12.18831683 44.46909295 -14.47848469 46.7588877 -16.77066636 49.04677474 C-19.24871937 51.52234945 -21.7210047 54.0036734 -24.19407654 56.48422241 C-29.03171386 61.33457589 -33.87478109 66.17947171 -38.71995246 71.02229808 C-42.65776015 74.95831984 -46.59379154 78.89610949 -50.52857971 82.83514977 C-51.08943277 83.39659801 -51.65028582 83.95804625 -52.22813442 84.53650808 C-53.367603 85.67718844 -54.50707041 86.81786998 -55.64653665 87.95855268 C-66.31890949 98.6417881 -76.99777776 109.31851227 -87.67863399 119.99326517 C-97.44866744 129.75812441 -107.21045085 139.53118391 -116.9683941 149.30812351 C-126.99516012 159.35425916 -137.02746582 169.39483155 -147.06580114 179.4294073 C-152.69869745 185.06039103 -158.32936919 190.69355688 -163.95423889 196.33255959 C-168.73993342 201.13015732 -173.53083177 205.92248264 -178.32853854 210.70806906 C-180.77559839 213.14923429 -183.22018669 215.59274553 -185.65830803 218.04284096 C-188.30273277 220.69767942 -190.95619709 223.34313915 -193.61218262 225.98640442 C-194.38047535 226.76207144 -195.14876809 227.53773846 -195.94034243 228.33691055 C-201.70205329 234.04057913 -206.93846663 237.6635106 -215.22252464 238.14315987 C-224.20322306 237.68026626 -231.0160448 230.70276885 -236.96630859 224.64892578 C-238.21707184 223.40648605 -238.21707184 223.40648605 -239.49310303 222.13894653 C-242.22394812 219.41983477 -244.93643095 216.68320365 -247.6484375 213.9453125 C-249.55059207 212.03897221 -251.45605415 210.13594911 -253.36123657 208.2326355 C-257.34210627 204.25171242 -261.31306159 200.26111386 -265.27783203 196.26416016 C-269.85004578 191.65501158 -274.4362052 187.06012057 -279.03040063 182.47288907 C-283.46818433 178.0414265 -287.89735602 173.60145788 -292.32222366 169.15710068 C-294.19761373 167.2735744 -296.07598763 165.39318081 -297.95588303 163.51413345 C-300.58147578 160.88673919 -303.19704315 158.24975871 -305.81005859 155.60986328 C-306.97116653 154.45315125 -306.97116653 154.45315125 -308.1557312 153.27307129 C-313.99557866 147.34047951 -318.49975683 141.84037767 -319.09765625 133.265625 C-318.8122348 126.64384745 -315.63544569 121.53009466 -311 117 C-305.64094348 113.84761381 -300.10280599 112.88801096 -294 114 C-287.66397364 116.44927109 -283.27317012 120.16633275 -278.57421875 124.97167969 C-277.88054703 125.6647673 -277.18687531 126.35785492 -276.47218323 127.07194519 C-274.20100058 129.34589571 -271.94428582 131.6336434 -269.6875 133.921875 C-268.10797317 135.50886877 -266.52755594 137.09497679 -264.94628906 138.68023682 C-260.80119479 142.84055145 -256.66825763 147.01274024 -252.53778076 151.18756104 C-248.3150494 155.45132232 -244.08087091 159.70368251 -239.84765625 163.95703125 C-231.55389388 172.29360105 -223.27293661 180.6427666 -215 189 C-211.02561901 186.73826345 -208.7745271 184.64156681 -206 181 C-202.54847978 177.36682082 -198.8461543 174.20512858 -195 171 C-192.4590396 168.58003771 -190.15908881 166.20383254 -188 163.4375 C-185.88121393 160.85522947 -183.62797078 159.05109914 -181 157 C-178.46060949 154.5844822 -176.15688282 152.20100612 -174 149.4375 C-171.88121393 146.85522947 -169.62797078 145.05109914 -167 143 C-164.46060949 140.5844822 -162.15688282 138.20100612 -160 135.4375 C-157.88121393 132.85522947 -155.62797078 131.05109914 -153 129 C-150.46060949 126.5844822 -148.15688282 124.20100612 -146 121.4375 C-143.88121393 118.85522947 -141.62797078 117.05109914 -139 115 C-136.46060949 112.5844822 -134.15688282 110.20100612 -132 107.4375 C-129.88121393 104.85522947 -127.62797078 103.05109914 -125 101 C-123.31237149 99.3545622 -121.6459651 97.68711423 -120 96 C-119.195625 95.21625 -118.39125 94.4325 -117.5625 93.625 C-115.61217973 91.62711094 -113.79986799 89.62669824 -112 87.5 C-107.72965831 82.46709729 -103.06698807 78.22249006 -98 74 C-95.4590396 71.58003771 -93.15908881 69.20383254 -91 66.4375 C-88.88121393 63.85522947 -86.62797078 62.05109914 -84 60 C-82.31237149 58.3545622 -80.6459651 56.68711423 -79 55 C-77.7934375 53.824375 -77.7934375 53.824375 -76.5625 52.625 C-74.59540625 50.60992836 -72.79850308 48.59478375 -71 46.4375 C-68.56804854 43.55772117 -65.99445392 41.30342609 -63 39 C-60.46060949 36.5844822 -58.15688282 34.20100612 -56 31.4375 C-53.88121393 28.85522947 -51.62797078 27.05109914 -49 25 C-46.48020356 22.60312046 -44.17275467 20.21594333 -42 17.5 C-38.95997305 13.69996631 -35.58174974 10.43808859 -31.8125 7.375 C-28.88119654 5.12277665 -28.88119654 5.12277665 -27 2 C-26.34 2 -25.68 2 -25 2 C-25 1.34 -25 0.68 -25 0 C-16.48595503 -4.45052351 -8.44331399 -5.628876 0 0 Z " fill="#039C06" transform="translate(554,225)"/>
<path d="M0 0 C0.66 0 1.32 0 2 0 C0.60652624 3.15204981 -1.02485079 5.26171773 -3.4765625 7.671875 C-4.48203125 8.66767578 -4.48203125 8.66767578 -5.5078125 9.68359375 C-6.20648438 10.36550781 -6.90515625 11.04742187 -7.625 11.75 C-8.33140625 12.44738281 -9.0378125 13.14476562 -9.765625 13.86328125 C-11.50598703 15.58012488 -13.25084981 17.29211832 -15 19 C-15.66 18.67 -16.32 18.34 -17 18 C-16.278125 17.29875 -15.55625 16.5975 -14.8125 15.875 C-12.88855154 13.96189068 -11.22859879 12.05503352 -9.5 9.9375 C-7.17354547 7.20391592 -4.81086656 5.20311163 -2 3 C-1.34 2.01 -0.68 1.02 0 0 Z " fill="#23A225" transform="translate(465,289)"/>
<path d="M0 0 C0.33 0.99 0.66 1.98 1 3 C-1.28356246 5.34138543 -3.57813374 7.67166982 -5.875 10 C-6.85146484 11.00160156 -6.85146484 11.00160156 -7.84765625 12.0234375 C-8.47285156 12.65507812 -9.09804688 13.28671875 -9.7421875 13.9375 C-10.3182373 14.52402344 -10.89428711 15.11054688 -11.48779297 15.71484375 C-13 17 -13 17 -15 17 C-15 16.34 -15 15.68 -15 15 C-13.390625 13.484375 -13.390625 13.484375 -11.25 11.75 C-8.65159827 9.55487755 -6.49630704 7.5744979 -4.6875 4.6875 C-3 2 -3 2 0 0 Z " fill="#34A936" transform="translate(567,482)"/>
<path d="M0 0 C0.66 0.33 1.32 0.66 2 1 C-0.78358481 3.84137242 -3.57815727 6.67168155 -6.375 9.5 C-7.1690625 10.31082031 -7.963125 11.12164062 -8.78125 11.95703125 C-9.92207031 13.10751953 -9.92207031 13.10751953 -11.0859375 14.28125 C-11.7876709 14.99345703 -12.4894043 15.70566406 -13.21240234 16.43945312 C-15 18 -15 18 -17 18 C-15.74456576 14.23369729 -14.11311137 13.40558606 -11 11 C-8.39710936 8.52407964 -6.04955992 6.0623039 -3.8125 3.25 C-2 1 -2 1 0 0 Z " fill="#28A429" transform="translate(398,357)"/>
<path d="M0 0 C0.33 0.66 0.66 1.32 1 2 C-8.75624462 13.416882 -8.75624462 13.416882 -13 17 C-13.66 17 -14.32 17 -15 17 C-15 16.34 -15 15.68 -15 15 C-13.35648543 13.63823078 -11.68477344 12.31037934 -10 11 C-6.36250168 7.5443766 -3.16120238 3.88376292 0 0 Z " fill="#28A329" transform="translate(445,309)"/>
<path d="M0 0 C0 3 0 3 -2.08203125 5.4453125 C-2.98308594 6.32960938 -3.88414062 7.21390625 -4.8125 8.125 C-5.70582031 9.01445312 -6.59914063 9.90390625 -7.51953125 10.8203125 C-10 13 -10 13 -13 14 C-10.98139091 7.94417272 -4.7905621 4.01744545 0 0 Z " fill="#27A328" transform="translate(505,250)"/>
<path d="M0 0 C0.66 0.33 1.32 0.66 2 1 C-1.82573388 4.92496041 -5.61997324 8.68179791 -10 12 C-10.66 11.67 -11.32 11.34 -12 11 C-8.04 7.37 -4.08 3.74 0 0 Z " fill="#38A83B" transform="translate(243,145)"/>
<path d="M0 0 C0.66 0.33 1.32 0.66 2 1 C0.90344712 2.31886772 -0.20253423 3.62990057 -1.3125 4.9375 C-1.92738281 5.66839844 -2.54226563 6.39929688 -3.17578125 7.15234375 C-5 9 -5 9 -8 10 C-6.76044505 6.28133515 -4.81445146 4.67716114 -2 2 C-1.34 1.34 -0.68 0.68 0 0 Z " fill="#2FA730" transform="translate(410,344)"/>
<path d="M0 0 C-3.63195496 2.42130331 -5.38349348 2.21022785 -9.6875 2.125 C-10.86699219 2.10695313 -12.04648437 2.08890625 -13.26171875 2.0703125 C-14.16535156 2.04710937 -15.06898438 2.02390625 -16 2 C-16 1.67 -16 1.34 -16 1 C-14.0852312 0.63571223 -12.16807707 0.28394694 -10.25 -0.0625 C-9.18265625 -0.25972656 -8.1153125 -0.45695313 -7.015625 -0.66015625 C-4.25228095 -0.97156937 -2.59053383 -0.8991416 0 0 Z " fill="#3DAA3E" transform="translate(448,553)"/>
<path d="M0 0 C0 3 0 3 -2.5 5.6875 C-3.325 6.450625 -4.15 7.21375 -5 8 C-5.66 7.67 -6.32 7.34 -7 7 C-4.66666667 4.66666667 -2.33333333 2.33333333 0 0 Z " fill="#25A226" transform="translate(380,375)"/>
<path d="M0 0 C0.66 0.33 1.32 0.66 2 1 C-0.31 3.31 -2.62 5.62 -5 8 C-5.66 7.67 -6.32 7.34 -7 7 C-2.25 1.125 -2.25 1.125 0 0 Z " fill="#20A022" transform="translate(398,357)"/>
<path d="M0 0 C2.95183101 2.95183101 3.08663988 5.95511947 4 10 C3.01 9.67 2.02 9.34 1 9 C0.67 6.03 0.34 3.06 0 0 Z " fill="#30A734" transform="translate(640,243)"/>
<path d="M0 0 C0 3 0 3 -2.5 5.6875 C-3.325 6.450625 -4.15 7.21375 -5 8 C-5.66 7.67 -6.32 7.34 -7 7 C-4.66666667 4.66666667 -2.33333333 2.33333333 0 0 Z " fill="#22A124" transform="translate(429,326)"/>
</svg>
