<?xml version="1.0" encoding="UTF-8"?>
<svg version="1.1" viewBox="0 0 2048 705" width="1280" height="1280" xmlns="http://www.w3.org/2000/svg">
<path transform="translate(0)" d="m0 0h2048v705h-2048z" fill="#FDFDFD"/>
<path transform="translate(690,130)" d="m0 0h192l4 2 15 2 15 5 17 8 11 8 8 8 7 10 6 12 3 9 1 6-1 22-6 16-4 8-11 12-10 8-16 8-9 4-9 3 2 4 8 1 4 2 13 5 16 8 9 7 13 13 8 14 5 13 1 12v10l-2 16-4 11-6 10-9 10-9 9-16 10-18 8-8 3-14 2-2 2-16 1h-110l-81-1v-7l20-4 11-3 5-4 4-7 2-12 1-15v-216l-2-21-3-9-6-7-13-4-15-3-2-5z" fill="#2E7C5F"/>
<path transform="translate(37,130)" d="m0 0h101l-1 9-6 32-5 39-4 63v8l71 1 49-1-1-13-1-36-2-24-7-49-3-15-1-13 1-1h99l1 3-7 41-2 23-2 9-1 14-1 28-1 6-1 41 3 67 5 42 6 37v6l-3 1h-68l-29-1 9-58 2-19 2-18 1-34v-22h-119l1 29 3 46 5 37 7 36v3l-3 1h-42l-57-1 6-36 4-28 4-37v-107l-2-27-2-13-3-23-7-44z" fill="#1E585E"/>
<path transform="translate(543,123)" d="m0 0 3 1 4 22 6 24 10 34 15 43 11 30 15 39 18 41 18 39 13 25 12 21 2 6h-67l-60-1 1-9 2-10v-20l-2-15-1-5-1-15-3-13-3-14-2-3-9-1h-109l-4 14-1 8v25l6 21 9 17 12 14 5 6v1h-88l-15-1 6-12 10-15 10-17 12-23 12-27 11-26 14-32 15-40 12-29 15-36 15-38 7-18 3-4 28-4 5-1h9z" fill="#458E5C"/>
<path transform="translate(1844,123)" d="m0 0h20l23 2 16 4 11 1 3 2 8 1h38l8-1-2 16-4 22-4 27-3 27-2 14-3-3-5-15-12-25-7-13-12-16-10-10-13-9-16-7-21-3-14 3-9 5-9 8-8 12-4 10-1 16 3 9 4 9 6 9 7 6 11 7 34 17 16 6 12 6 24 11 18 10 11 9 13 10 10 12 8 15 4 14v27l-7 21-6 11-8 10-6 7-11 9-14 9-17 8-10 4-12 3-7 2-13 1-5 2-9 1h-29l-21-4-14-1-11-3-15-1-12-3h-28l-9 4h-3l5-26 5-33 3-34 3-16 2 2 7 20 8 17 11 16 11 13 12 12 14 9 21 10 21 5h8l9-3 10-3 12-7 5-5 7-8 5-10 1-5v-21l-4-11-6-10-7-8-15-11-15-9-32-17-16-8-21-10-15-10-12-9-13-12-7-7-8-13-5-12-5-20v-9l6-22 6-12 10-13 14-10 10-6 15-7 11-3 6-3 11-2 7-2z" fill="#1E575E"/>
<path transform="translate(1431,130)" d="m0 0h103l-1 10-5 26-5 34-4 49-1 18v67l3 19 4 18 8 20 8 14 9 10 7 7 14 8 11 4h32l15-6 10-8 7-6 9-14 7-16 6-20 2-10 2-20v-47l-1-10-1-25-2-15-3-24-3-7-3-16-8-20-7-14-10-13-10-10-1-3h92l-9 19-7 19-5 21-5 38-1 18-2 66-2 35-3 20-8 26-8 16-8 12-12 12-10 7-15 8-11 4-16 3-9 2h-29l-7-3-12-2-12-5-20-11-14-11-13-13-10-14-9-17-5-15-4-20-1-11-1-73-2-29-3-37-7-41-4-20-1-3z" fill="#448D5C"/>
<path transform="translate(1118,130)" d="m0 0h288v79l-3 7-4 1-3-3-3-12-4-14-8-15-8-10-11-8-10-4-15-2h-37l-1 55v165l1 34 3 16 4 9 5 6 8 4 25 6 2 1v6l-1 1h-162l-8-1v-6l7-2 23-5 7-3 5-6 4-12 1-6 1-22v-241l-43 1-16 3-9 6-7 6-9 13-6 13-4 13-2 9-2 4-7-1-2-3v-81z" fill="#27365A"/>
<path transform="translate(995,130)" d="m0 0h102l-5 26-7 45-3 34-2 28v58l3 32 2 26 3 19 3 20 5 25v5h-41l-62-1 5-25 6-39 3-32 2-17v-89l-3-25-2-25-6-36-5-28z" fill="#28375B"/>
<path transform="translate(808,295)" d="m0 0h31l6 3 9 2 16 8 8 7 10 14 5 10 4 15 1 5v22h2v-2l11-3h13l8 1h43l3-2 1-3 1-24h1l1 12v10l-2 16-4 11-6 10-9 10-9 9-16 10-18 8-8 3-14 2-2 2-16 1h-110l-81-1v-7l20-4 11-3 5-4 4-7 2-12 1-15h1l1-18 1-4 3-1 9 1h55l4 1 1 2 1-28v-53z" fill="#458E5C"/>
<path transform="translate(808,148)" d="m0 0h16l24 2 10 3 10 7 6 7 8 14 5 16 3 14 3-2 67-1 8-1v15l-6 16-4 8-11 12-10 8-16 8-9 4-9 3 2 5-3 3-10 2-47 2h-53l-19-1h-38l-1 1-1 62h-1v-145l1-1h72l1-39 1-21z" fill="#1E585F"/>
<path transform="translate(1941,289)" d="m0 0h16l10 8 7 6 10 14 6 13 3 11v27l-7 21-6 11-8 10-6 7-11 9-14 9-17 8-10 4-12 3-7 2-13 1-5 2-9 1h-29l-21-4-14-1-11-3-15-1-12-3h-28l-9 4h-3l5-26 5-33 3-34 3-16 2 2 7 20 8 17 11 16 11 13 12 12 14 9 21 10 21 5h8l9-3 10-3 12-7 5-5 7-8 5-10 1-5v-21l-4-11-6-10-7-8-15-11-15-9-32-17-16-8-21-10-3-2v-2l6-2 137-1z" fill="#2E7B5F"/>
<path transform="translate(280,513)" d="m0 0h895v16l-1 2-53 1h-800l-41-1z" fill="#221033"/>
<path transform="translate(1608,42)" d="m0 0h94l27 1v17l-1 1h-894v-18z" fill="#220F32"/>
<path transform="translate(543,123)" d="m0 0 3 1 4 22 6 24 10 34 15 43 11 30 4 12-4 2-17 1-53-1-4-2-10-27-16-36-10-17-8-13-2-3-3-1-3 9-15 35-14 36-7 3-3 7-3 5h-2l-1 4-14 28-2 1 3-9 10-24 14-37 18-43 17-42 10-26 4-8 1-1 28-4 5-1h9z" fill="#28375A"/>
<path transform="translate(690,130)" d="m0 0h192l4 2 15 2 15 5 17 8 11 8 8 8 7 10 6 12 3 9 1 6v9l-1-2-8 2-67 1-2 1-2 4-2-14-5-18-7-13-7-9-10-7-10-3-24-2h-16l-1 21-1 40h-73l-1 158h-1l-1-185-2-21-3-9-6-7-13-4-15-3-2-5z" fill="#27365A"/>
<path transform="translate(143,286)" d="m0 0h3v2l8-1h10 4 19l3 1 17-1 6 1 9 1 16 3 3 3-119 1 1 29 3 46 5 37 7 36v3l-3 1h-42l-57-1 6-36 4-28 4-37 1-52 6-3h36l26 1 4-1 17-3z" fill="#2E7C5F"/>
<path transform="translate(1297,289)" d="m0 0h1l1 80 1 34 3 16 4 9 5 6 8 4 25 6 2 1v6l-1 1h-162l-8-1v-6l7-2 23-5 7-3 5-6 4-12 1-6 2-44 2-73 3-3h66z" fill="#458E5C"/>
<path transform="translate(1431,130)" d="m0 0h103l-1 10-5 26-5 34-4 49-2 43-2 1-2-1h-58l-4 1-1 6h-1l-1-7-2-49-4-48-7-41-4-20-1-3z" fill="#28375B"/>
<path transform="translate(312,255)" d="m0 0h1v40l3 67 5 42 6 37v6l-3 1h-68l-29-1 9-58 2-19 2-18 1-34v-23l3-2 19-2h48v-33z" fill="#2E7C5F"/>
<path transform="translate(1010,285)" d="m0 0h1l1 7 6-1h54l7 1 1 29 3 32 2 26 3 19 3 20 5 25v5h-41l-62-1 5-25 6-39 3-32 2-17z" fill="#2E7C5F"/>
<path transform="translate(808,295)" d="m0 0h31l6 3 9 2 16 8 8 7 10 14 5 10 4 15 1 5v18l-4 17-7 14-8 10-10 7-13 6-15 4h-15l-10-5-6-7-3-7-1-7v-110z" fill="#FDFDFD"/>
<path transform="translate(1844,123)" d="m0 0h20l23 2 16 4 11 1 3 2 8 1h38l8-1-2 16-4 22-4 27-3 27-2 14-3-3-5-15-12-25-7-13-12-16-10-10-13-9-16-7-21-3-14 3-9 5-9 8-8 12-4 10-1 16 3 9 4 9 6 9 3 4-4-2-9-11-84 1-3 1-1 3h-2v-9l6-22 6-12 10-13 14-10 10-6 15-7 11-3 6-3 11-2 7-2z" fill="#28375A"/>
<path transform="translate(1503,480)" d="m0 0h31l4 4 1 3 1 22v169l-1 11-5 5-2 1h-30l-7-4-2-8v-190l2-9 2-3z" fill="#221033"/>
<path transform="translate(1742,339)" d="m0 0 2 2 7 20 8 17 11 16 11 13 12 12 14 9 21 10 21 5h8l9-3 10-3 12-7 5-5 7-8 5-10 1-5v-21l-1-7 4 2h13l19 2h41l7-2 1 2-6 15-7 11-11 13-11 9-14 9-17 8-10 4-12 3-7 2-13 1-5 2-9 1h-29l-21-4-14-1-11-3-15-1-12-3h-28l-9 4h-3l5-26 5-33 3-34z" fill="#458E5C"/>
<path transform="translate(1310,480)" d="m0 0h32l4 4 1 2 1 14v180l-1 9-4 5-2 1h-32l-6-5-1-3v-198l3-7z" fill="#221033"/>
<path transform="translate(469,192)" d="m0 0 4 1 8 13 10 17 8 16 12 28 13 36 7 20v6l-4 1h-80l-29-1 1-8 11-33 18-47 12-28z" fill="#FDFDFD"/>
<path transform="translate(808,148)" d="m0 0h16l24 2 10 3 10 7 6 7 8 14 5 16 2 9v10l-4 17-4 10-9 14-9 8-12 6-8 3h-34l-2-1-1-4v-99l1-21z" fill="#FDFDFD"/>
<path transform="translate(1608,42)" d="m0 0h94l24 1v1l-98 1-47 1-1 2-4 1-43 3-70 2h-112l-40 1h-166l-66-1h-41l-15 1h-61l-34-2-14-1-15-3v-2l2-1h-60l-4 7h-1l-1 6 3 1h-4v-17z" fill="#1B0725"/>
<path transform="translate(627,372)" d="m0 0 5 1 17 35 13 23 8 15v2h-67l-60-1 1-9 2-10v-20l-2-15-1-5v-15l2 3v2l6-2h16l5 1h25l15-1 2-1 11-1z" fill="#458E5C"/>
<path transform="translate(1360,559)" d="m0 0h66l56 1 1 1v40l-1 17h-122z" fill="#221033"/>
<path transform="translate(37,130)" d="m0 0h101l-1 9-6 32-5 39h-75v7l-2 1-3-19-3-23-7-44z" fill="#28375B"/>
<path transform="translate(228,130)" d="m0 0h99l1 3-7 41-2 23-2 9-7 3h-67l-1 13-2-4-2-10-7-49-3-15-1-13z" fill="#28375B"/>
<path transform="translate(520,288)" d="m0 0 2 2 61 1 9-1 4-1 5 12 13 31 16 36 2 5h-5l-2 2-11 1-2 1-15 1h-25l-5-1h-18l-4 1-1-5h-2l-3-13-4-18-3-9-2-10-11-33z" fill="#2E7B5F"/>
<path transform="translate(1568,511)" d="m0 0h19l5 2 3 3 2 10v124l-2 8-5 5-3 1h-28l-5-3-3-6v-136l4-6 2-1z" fill="#221134"/>
<path transform="translate(1264,511)" d="m0 0h17l5 2 4 5 1 4v131l-3 7-5 4h-27l-7-3-3-3-1-5v-109l1-27 4-4 3-1z" fill="#221033"/>
<path transform="translate(1623,130)" d="m0 0h92l-9 19-7 19-5 21-5 38-1 18-2 66-2 35-3 20-3 11-2 1v-3l-3-1-3-8-2 2 1-8 3-26v-47l-1-10-1-25-2-15-3-24-3-7-3-16-8-20-7-14-10-13-10-10z" fill="#28375A"/>
<path transform="translate(489,208)" d="m0 0h76l4 9v2h2l20 55 5 15-4 2-17 1-53-1-4-2-10-27-16-36-3-5-3-9z" fill="#1E575E"/>
<path transform="translate(314,375)" d="m0 0 4 3 3 26 6 37v6l-3 1h-68l-29-1 9-58 1-13h1l1 5 4-3 6-2h14l22 1 27-1z" fill="#458E5C"/>
<path transform="translate(1297,289)" d="m0 0h1v87l-18 2h-38l-13 3-3 6h-1v-20l2-73 3-3h66z" fill="#2E7C5F"/>
<path transform="translate(1017,377)" d="m0 0h54l11 1 3 1 3 19 3 20 5 25v5h-41l-62-1 5-25 3-18h2l1-10 3-12z" fill="#458E5C"/>
<path transform="translate(62,377)" d="m0 0h61l2 1 3 16h1l6 36 3 14v3l-3 1h-42l-57-1 6-36 4-28 2 1 8-5z" fill="#458E5C"/>
<path transform="translate(1227,209)" d="m0 0h70l1 1v79l-2 3h-68l-2 75h-1v-151z" fill="#1E585F"/>
<path transform="translate(1455,291)" d="m0 0h58l4 1 1 42 3 19 6 27-5-5-1 2-2 2-15 2-18-1-16-2h-10l-3-5-2-1-5-21-2-17v-42h3z" fill="#2E7C5F"/>
<path transform="translate(1512,208)" d="m0 0h8l2 1-3 40-2 43-2 1-2-1h-58l-4 1-1 6h-1l-1-7-2-49-1-18v-13l2-3z" fill="#1E575E"/>
<path transform="translate(1081,208)" d="m0 0 2 1 1 4-3 33-2 46-2 1-5-1h-60v7h-1l-1-14-1-40-1-10v-24l2-2z" fill="#1E575E"/>
<path transform="translate(51,209)" d="m0 0h74v18l-3 46v10h-2l-1 4-4 3h-14l-31 1-13 1-6 2-1-55-1-21 1-1v-7z" fill="#1E575E"/>
<path transform="translate(1742,339)" d="m0 0 2 2 7 20 8 17 11 16 11 13 12 12 14 9 1 3-3 2 2 8 2 1-1 3-6 1h-27l-9-2h-28l-9 4h-3l5-26 5-33 3-34z" fill="#458E5C"/>
<path transform="translate(431,273)" d="m0 0h5l-3 10-9 26-6 20h113l1-4 2 12 2 7-2-1-9-1h-109l-4 14-2 14-1 13-2-4-4-2h-3l-5-1h-6l-3-3h-4l3-9 10-23 9-21 3-3 15-30h2l1-4 3-5z" fill="#2F7D5F"/>
<path transform="translate(1040,513)" d="m0 0h68v1l-28 1-63 1-9 2-28 2-36 3h-18l-31-1-15-1h-35l-35-2-25-1h-14l-6 1-5-1h-11l-21 1h-56l-15 1h-41l-27-3-5-1h-124l-10 1h-25l-15-1-127-1v15h-2v-16z" fill="#1B0725"/>
<path transform="translate(1688,207)" d="m0 0h3l-1 12-2 26-2 66-2 35-3 20-3 11-2 1v-3l-3-1-3-8-2 2 1-8 3-26v-47l-1-10-1-25-2-15-2-17 1-10 1-1 15-1z" fill="#226764"/>
<path transform="translate(1670,365)" d="m0 0 2 2 2 7 2 1 1 5-7 19-8 14-7 9-10 10-10 7-15 8-11 4-16 3-9 2h-29l-7-3-12-2-6-3v-1l12-2h19v-2l2-1-4-11v-5l3-1 9 5 11 4h32l15-6 10-8 7-6 9-14 7-16 5-17z" fill="#529D6A"/>
<path transform="translate(1898,420)" d="m0 0 2 1-5 9-3 7 1 7 6 1h7l2 1v2l-13 4-13 1-5 2-9 1h-29l-21-4-14-1-11-3-15-1v-1l28-1 3-3-3-1-2-8 3-4 6 2 15 7 21 5h8l9-3 10-3 12-7 5-5z" fill="#519C69"/>
<path transform="translate(531,325)" d="m0 0h1l2 12 2 7-2-1-9-1h-110l2-13h114z" fill="#519C69"/>
<path transform="translate(1672,280)" d="m0 0 1 2h10l1 1 2-2v30l-2 35-3 20-3 11-2 1v-3l-3-1-3-8-2 2 1-8 3-26z" fill="#32805F"/>
<path transform="translate(122,282)" d="m0 0h119l5 5 11 2 33 1v1l-27 1-19 2h-4l-9-2-12-3h-10l-6-1-15 1-4-1h-18l-2 1v-2l-2 1h-16v-2l-9 4-17 2-1 1-32-1-17-1v-1l36-1h9l4-3 1-3z" fill="#256964"/>
<path transform="translate(1212,436)" d="m0 0 2 4-1 5 3 1 3 2 13 2 65 1v-2l11-2 2-5 2-4 5-1 28 7 2 1v6l-1 1h-162l-8-1v-6l7-2 23-5z" fill="#529D6A"/>
<path transform="translate(455,200)" d="m0 0h2l1 4 4 1 1 3-16 38-10 26-7 3-3 7-3 5h-2l-1 4-14 28-2 1 3-9 10-24 14-37 11-26h2l3-9z" fill="#1F555E"/>
<path transform="translate(1670,365)" d="m0 0 2 2 2 7 2 1 1 5-7 19-8 14-7 9-10 10-7 5h-3v-2l-3-1 1-4 3-1 4-10 6-5 9-14 7-16 5-17z" fill="#458E5D"/>
<path transform="translate(1225,571)" d="m0 0h8l1 6v25l-1 4h-19l-2-2v-30l1-2z" fill="#221336"/>
<path transform="translate(1608,572)" d="m0 0h20l1 1v30l-1 3h-19l-1-1-1-8v-23z" fill="#221134"/>
<path transform="translate(900,284)" d="m0 0 5 1-1 3-12 3-47 2h-53l-19-1v-1l23-1 13-3 20-1h9l17 2h17l22-1z" fill="#226664"/>
<path transform="translate(1688,207)" d="m0 0h3v6l-3-1-3 10-3 12-3 6-7-2v-3h-2l-2-4-1-21 1-1 15-1z" fill="#1E585F"/>
<path transform="translate(436,249)" d="m0 0h5v13l-4 10-7 3-3 7-3 5h-2l-1 4-14 28-2 1 3-9 10-24 8-21 3-1 1-6 3-6z" fill="#226764"/>
<path transform="translate(724,431)" d="m0 0 1 3-5 6-2 6 5 3 25 1v1h-61v-7l20-4 11-3 5-4z" fill="#519C69"/>
<path transform="translate(876,419)" d="m0 0 2 1-7 6-8 7-3 3-8 3-3 2-5 1h-12l-5-2-2-5 16-1 18-5 15-8z" fill="#529D6A"/>
<path transform="translate(831,448)" d="m0 0h23l39 1 1 2-16 1h-82v-1l20-1z" fill="#529D6A"/>
<path transform="translate(586,265)" d="m0 0 3 3 7 21-4 2-17 1-19-1v-1l18-1 11-3 1-1v-9l-1-9z" fill="#236363"/>
<path transform="translate(1744,352)" d="m0 0 4 1 6 15-1 3-3-1-5 1-3-1v2h-2l-1-7 3-12z" fill="#2F7D5F"/>
<path transform="translate(427,267)" d="m0 0 1 3-6 20-10 19-6 11-1-2 12-28 8-22z" fill="#20535E"/>
<path transform="translate(1862,243)" d="m0 0 7 1 20 9 10 4 15 7v2l-9-2-4-2v-2l-6-1-21-9-12-6z" fill="#25565F"/>
<path transform="translate(1654,415)" d="m0 0 5 1-3 5-11 11h-2l2-12z" fill="#529D6A"/>
<path transform="translate(1913,267)" d="m0 0h7l16 8 14 8 3 4-4-1v-2h-5l-10-6-21-10z" fill="#27555E"/>
<path transform="translate(1686,240)" d="m0 0h1v40l-2 1-2-10 1-8v-20z" fill="#1E595F"/>
<path transform="translate(1785,289)" d="m0 0 68 1v1l-60 1-8 2-2-4z" fill="#226664"/>
<path transform="translate(1742,339)" d="m0 0 2 2 3 9-1 3h-4l-2 14-2 2 1-14z" fill="#519C69"/>
<path transform="translate(509,259)" d="m0 0 3 4 6 16 2 11-2-1-9-24z" fill="#2A565C"/>
<path transform="translate(1887,255)" d="m0 0h7l20 9v2l-9-2-4-2v-2l-6-1-8-3z" fill="#2C655F"/>
<path transform="translate(952,248)" d="m0 0h3l-2 4-8 8-5 4h-2l1-4 11-10h2z" fill="#307965"/>
<path transform="translate(1688,210)" d="m0 0 2 3-1 14-1 18h-1v-20l-1-5 1-8z" fill="#378461"/>
<path transform="translate(1667,212)" d="m0 0h1l1 19 3 8v9h-2l-3-16-1-14z" fill="#358261"/>
<path transform="translate(980,348)" d="m0 0h1l1 12v10l-2 16-2 3-1-4 2-5z" fill="#519C69"/>
<path transform="translate(1934,276)" d="m0 0 6 1 11 7 2 3-4-1v-2h-5l-10-6z" fill="#28585E"/>
<path transform="translate(872,256)" d="m0 0v3l-4 5h-3l-1 3-8 5-2-1 5-5 9-6z" fill="#388362"/>
<path transform="translate(1744,352)" d="m0 0 4 1-2 6-6 2 2-8z" fill="#448D5C"/>
<path transform="translate(346,435)" d="m0 0h1v10l-3 2-4-1z" fill="#519C69"/>
<path transform="translate(1503,480)" d="m0 0h31l3 2v2l-4-2-30-1z" fill="#28375B"/>
<path transform="translate(1946,284)" d="m0 0h3v2l7 2-1 2h-9l-3-2 4-2z" fill="#226263"/>
<path transform="translate(1726,43)" d="m0 0h3v17l-4-1h2z" fill="#201737"/>
<path transform="translate(1474,404)" d="m0 0 5 5 5 6-1 2-9-10z" fill="#468166"/>
<path transform="translate(1846,235)" d="m0 0 7 1 6 3v2l-5-1-8-4z" fill="#255D61"/>
<path transform="translate(1729,437)" d="m0 0 2 8-2 3h-3z" fill="#348261"/>
<path transform="translate(1913,267)" d="m0 0h7l2 1v2l4 2-6-1-7-3z" fill="#276761"/>
</svg>
